<?xml version="1.0" encoding="utf-8"?>
<!-- Generator: Adobe Illustrator 22.1.0, SVG Export Plug-In . SVG Version: 6.00 Build 0)  -->
<svg version="1.1" id="Layer_1" xmlns="http://www.w3.org/2000/svg" xmlns:xlink="http://www.w3.org/1999/xlink" x="0px" y="0px"
	 viewBox="0 0 500 500" style="enable-background:new 0 0 500 500;" xml:space="preserve">
<style type="text/css">
	.st0{enable-background:new    ;}
	.st1{fill:#43A800;}
</style>
<g id="_x33_6-user_-_password_lock" class="st0">
	<g id="_x33_6-user_-_password_lock_1_">
		<g>
			<path class="st1" d="M391.6,188.5v-46.9C391.6,63.9,328.7,1,251,1c-77.7,0-140.6,63-140.6,140.6v46.9h0
				c-34.5,0-62.5,28-62.5,62.5v187.5c0,34.5,28,62.5,62.5,62.5h281.2c34.5,0,62.5-28,62.5-62.5V251
				C454.1,216.4,426.1,188.5,391.6,188.5z M141.6,141.6c0-60.4,49-109.4,109.4-109.4c60.4,0,109.4,49,109.4,109.4v46.9H141.6V141.6z
				 M422.9,438.5c0,17.2-14,31.2-31.2,31.2H110.4c-17.3,0-31.3-14-31.3-31.2V251c0-17.3,14-31.3,31.3-31.3h281.2
				c17.3,0,31.2,14,31.2,31.3L422.9,438.5L422.9,438.5z M251,282.2c-8.6,0-15.6,7-15.6,15.6v93.7c0,8.6,7,15.6,15.6,15.6
				s15.6-7,15.6-15.6v-93.7C266.6,289.2,259.6,282.2,251,282.2z"/>
		</g>
	</g>
</g>
<g id="Layer_1_1_">
</g>
</svg>
