<?xml version="1.0" encoding="utf-8"?>
<!-- Generator: Adobe Illustrator 22.1.0, SVG Export Plug-In . SVG Version: 6.00 Build 0)  -->
<svg version="1.1" id="Layer_1" xmlns="http://www.w3.org/2000/svg" xmlns:xlink="http://www.w3.org/1999/xlink" x="0px" y="0px"
	 viewBox="0 0 484.8 484.8" style="enable-background:new 0 0 484.8 484.8;" xml:space="preserve">
<style type="text/css">
	.st0{fill:#43A800;}
</style>
<path class="st0" d="M242.4,484.8C108.8,484.8,0,376.1,0,242.4C0,108.7,108.8,0,242.4,0s242.4,108.7,242.4,242.4
	C484.8,376.1,376.1,484.8,242.4,484.8z M242.4,60.6c-100.3,0-181.8,81.6-181.8,181.8s81.6,181.8,181.8,181.8s181.8-81.6,181.8-181.8
	S342.7,60.6,242.4,60.6z M233.5,324.5c-5.9,5.9-13.7,8.9-21.4,8.9s-15.5-3-21.4-8.9l-60.6-60.6c-11.8-11.8-11.8-31,0-42.8
	c11.8-11.8,31-11.8,42.8,0l39.2,39.2l99.8-99.8c11.8-11.8,31-11.8,42.8,0c11.8,11.8,11.8,31,0,42.8L233.5,324.5z"/>
</svg>
